<?xml version="1.0" encoding="UTF-8"?>
<svg id="_Слой_1" data-name="Слой 1" xmlns="http://www.w3.org/2000/svg" viewBox="0 0 1024 1024">
  <defs>
    <style>
      .cls-1, .cls-2 {
        stroke-width: 0px;
      }

      .cls-2 {
        fill: #e2e2e2;
      }
    </style>
  </defs>
  <path class="cls-2" d="m0,0h1024v1024H0V0Z"/>
  <path class="cls-1" d="m430.84,357.77c9.46-.22,60.71-1.4,65.97.73,2.64,1.06,5.52,5.25,7.07,7.63,7.92,12.1,15.16,27.26,22.3,40.09l52.73,96.13,17.62,31.74c2.98,5.42,5.91,10.95,8.87,16.39.96,1.77,1.23,2.06,2.7,2.41,4.36-1.44,10.54-16.28,13.21-21.18,8.39-15.09,16.59-30.28,24.59-45.58l63.81-117.7c7.88-14.28,13.7-10.27,28.19-10.9,4.7-.2,10.05-.07,14.62.31,5.67.47,8.76,2.88,11.25,7.74,3.18,5.72,6.23,11.61,9.39,17.25,9.43,16.46,18.7,33,27.83,49.63l62.53,112.42,39.52,70.49c8.2,14.54,17.67,29.36,24.23,44.55,1.7,3.94-3.96,5.42-6.65,5.63h-40.9c-7.58.01-15.09.16-22.69-.16-7.47-.31-10.15-2.54-13.91-8.72-3.25-5.34-6.18-10.88-9.22-16.33l-16.9-30.46-56.24-102.68c-3.95-7.22-19.48-36.83-23.43-40.47-2.83.15-5.52,4.71-6.81,7.12-5.4,10.07-10.78,20.22-16.2,30.27l-56.85,104.47-15.52,28.37c-3.04,5.63-10.62,22.01-16.59,25.26-3.63,1.98-14.29,1.26-18.76,1.43-13.26.53-17.5-.52-23.69-12.66-14.41-25.52-28.54-51.09-42.71-76.71l-70.55-127.51-31.12-56.15c-4.42-7.95-9.22-16.01-13.12-24.2-1.95-4.1,1.74-7.54,5.43-8.67Z"/>
  <path class="cls-1" d="m274.78,357.85c7.64-.25,57.04-1.22,60.38.6,1.65.89,3.24,3.51,4.25,5.09,5.26,8.23,9.58,17.39,14.27,25.97,4.1,7.49,14.93,24.68,16.75,32.27-.98,2.82-2.72,4.37-5.79,4.4-7.54.09-15.09,0-22.63-.01l-49.64-.13c-11.26-.05-21.94-1.98-30.77,6.96-13.55,13.72-10.68,42.9,8.79,49.65,7.51,2.6,20.09,1.6,28.53,1.59h47.99c34.64.05,61.23-.88,88.32,25.45,48.7,47.47,27.86,139.1-40.32,154.44-20.45,4.6-51.16,1.82-72.81,1.59-30.95-.23-61.9-.3-92.86-.2l-57.24.17c-9.04.03-18.24.27-27.22-.2-3.22-.38-5.74-3.54-4.77-6.71,1.81-5.12,6.36-11.69,9.62-16.07,6.74-9.05,18.24-34.1,26.53-39.52,16.14-.34,33.1-.06,49.34-.05l95.21-.04c10.98-.02,21.96.02,32.93.13,5.6.04,12.21.3,17.67-.07,27.95-1.9,28.11-57.23-1.18-57.07-6.07.03-12.18.01-18.25.05l-55.57-.08c-13.93-.04-31.96.57-45.35-1.95-16.17-3.2-31.68-9.84-44.42-20.35-37.11-30.64-39.1-95.65-8.58-131.44,19.42-22.77,47.71-32.28,76.81-34.45Z"/>
</svg>